# xmcd
#
# Track frame offsets: 
#        150
#        20032
#        32202
#        47267
#        59042
#        83440
#        94487
#        117132
#        128802
#        140920
#        160010
#        177800
#        189422
#        202822
#        233900
#        246572
#
# Disc length: 3441 seconds
#
# Revision: 0
# Processed by: cddbd v1.5.2PL0 Copyright (c) Steve Scherf et al.
# Submitted via: ExactAudioCopy v1.0b3
#
DISCID=db0d6f10
DTITLE=Various Artist - The No.1 Blues And Soul Album Cd1
DYEAR=2003
DGENRE=R&B
TTITLE0=Koko Taylor -  Wang Dang Doodle
TTITLE1=Bobby Bland - I Pity The fool
TTITLE2=Edwin Starr -  Twenty-five Miles
TTITLE3=Jerry Butler - Only The Strong Survive
TTITLE4=B.B. King - The Thrill Has Gone
TTITLE5=Howlin’ Wolf - The Red Rooster
TTITLE6=Buddy Guy - Damn Right I Got The Blues
TTITLE7=Etta James - I’d Rather Go Blind
TTITLE8=Little Milton -  We re Gonna Make II
TTITLE9=Bobby Womack -  I Wish He Didn’t Trust Me So Much
TTITLE10=Doble Gray - Drift Away
TTITLE11=Albert King - Crosscut Saw
TTITLE12=Taj Mahal - Statesboro’ Blues
TTITLE13=Derek and The Dominoes - Have You Ever Loved A Woman
TTITLE14=Jnr Walker and The Allstars - (I’m A) Roadrunner
TTITLE15=The Temptations - Ain’t Too Proud To Beg
EXTD=
EXTT0=
EXTT1=
EXTT2=
EXTT3=
EXTT4=
EXTT5=
EXTT6=
EXTT7=
EXTT8=
EXTT9=
EXTT10=
EXTT11=
EXTT12=
EXTT13=
EXTT14=
EXTT15=
PLAYORDER=
